# xmcd CD database file
#
# Track frame offsets:
#	150
#	17831
#	35101
#	50025
#	66625
#	85613
#	101900
#	116176
#	127544
#	161973
#	173565
#	187497
#
# Disc length: 2672 seconds
#
# Revision: 0
# Processed by: cddbd v1.5.2PL0 Copyright (c) Steve Scherf et al.
# Submitted via: CDex 1.51
#
DISCID=b10a6e0c
DTITLE=Markus Zosel and Band - Queen of Hearts
DYEAR=2002
DGENRE=Country
TTITLE0=We`re the Boys
TTITLE1=Crossroads
TTITLE2=I got a fine and easy Feeling
TTITLE3=I won´t make it for the Money
TTITLE4=The Light
TTITLE5=Bright Mountain Morning
TTITLE6=Midnight Waltz
TTITLE7=Goin´ Fishing
TTITLE8=Queen of Hearts
TTITLE9=It´s easier to walk away
TTITLE10=Tender Love
TTITLE11=Rollin´ to Paestum
EXTD=YEAR: 2002
EXTT0=
EXTT1=
EXTT2=
EXTT3=
EXTT4=
EXTT5=
EXTT6=
EXTT7=
EXTT8=
EXTT9=
EXTT10=
EXTT11=
PLAYORDER=
